<svg width="162" height="40" viewBox="0 0 162 40" fill="none" xmlns="http://www.w3.org/2000/svg">
<rect y="0.380859" width="41" height="39" rx="8" fill="#0CA941"/>
<path d="M24.2792 21.6302L24.8498 18.0109H21.2831V15.6621C21.2831 14.6721 21.7811 13.7065 23.3787 13.7065H25V10.6252C25 10.6252 23.5289 10.3809 22.122 10.3809C19.1849 10.3809 17.2651 12.1146 17.2651 15.2527V18.0115H14V21.6309H17.2651V30.3809H21.2831V21.6309L24.2792 21.6302Z" fill="white"/>
<path d="M80 16.3465L78.0714 16.676L79.3571 15.0286L77.1071 15.6875C74.2143 12.3927 69.7143 16.017 71 18.9824C65.8571 18.9824 63.2857 15.0286 63.2857 15.0286C63.2857 15.0286 61.3571 17.9939 64.5714 20.3003L62.6429 19.6413C62.6429 21.6182 63.9286 22.9362 66.1786 23.5951H63.9286C65.2143 26.231 67.4643 26.231 67.4643 26.231C67.4643 26.231 65.5357 27.8784 62 27.8784C72.6071 33.1502 79.0357 23.2656 78.0714 17.9939L80 16.3465Z" fill="#678570" fill-opacity="0.53"/>
<path d="M148.786 16.1877C149.783 16.1877 150.591 15.355 150.591 14.3277C150.591 13.3005 149.783 12.4678 148.786 12.4678C147.789 12.4678 146.981 13.3005 146.981 14.3277C146.981 15.355 147.789 16.1877 148.786 16.1877Z" fill="#678570" fill-opacity="0.53"/>
<path d="M152.296 17.5969V27.9159H155.405V22.813C155.405 21.4664 155.651 20.1624 157.271 20.1624C158.869 20.1624 158.889 21.7019 158.889 22.898V27.9168H162V22.2579C162 19.4781 161.419 17.3419 158.266 17.3419C156.752 17.3419 155.738 18.1979 155.323 19.0081H155.28V17.5969H152.296ZM147.228 17.5969H150.343V27.9159H147.228V17.5969Z" fill="#678570" fill-opacity="0.53"/>
<path d="M112.969 10.3809C108.961 10.3809 105 13.1216 105 17.5574C105 20.3782 106.547 21.981 107.484 21.981C107.871 21.981 108.094 20.8751 108.094 20.5629C108.094 20.1904 107.168 19.3967 107.168 17.8459C107.168 14.6243 109.559 12.3401 112.653 12.3401C115.313 12.3401 117.282 13.8909 117.282 16.74C117.282 18.8678 116.45 22.8587 113.754 22.8587C112.782 22.8587 111.949 22.1374 111.949 21.104C111.949 19.589 112.98 18.1228 112.98 16.5598C112.98 13.9076 109.312 14.3884 109.312 17.5939C109.312 18.2671 109.394 19.0121 109.687 19.6256C109.148 22.006 108.046 25.552 108.046 28.0042C108.046 28.7613 108.152 29.5069 108.222 30.2641C108.355 30.4167 108.288 30.4006 108.491 30.3244C110.46 27.5593 110.39 27.0188 111.281 23.4004C111.762 24.3384 113.003 24.8429 113.988 24.8429C118.136 24.8429 120 20.6956 120 16.9573C120 12.9786 116.648 10.3821 112.968 10.3821L112.969 10.3809Z" fill="#678570" fill-opacity="0.53"/>
</svg>
